<!--?xml version="1.0" encoding="UTF-8"?-->
<svg preserveAspectRatio="xMidYMid meet" data-bbox="593.878 140.237 576.675 789.172" xmlns="http://www.w3.org/2000/svg" viewBox="593.878 140.237 576.675 789.172" height="1080" width="1920" data-type="color" role="presentation" aria-hidden="true" aria-label="">
    <g>
        <path d="M899.065 929.405c-.005-.083 1.377-1.745 3.071-3.694 46.952-53.984 81.778-117.49 101.916-185.847 7.176-24.359 12.678-50.272 15.925-75.005 1.27-9.677 2.453-21.067 2.949-28.411.11-1.615.233-3.208.276-3.54l.077-.603-2.97-.701c-13.865-3.273-29.16-8.428-42.65-14.375-4.796-2.115-13.637-6.487-18.562-9.18-38.891-21.273-71.546-52.67-94.374-90.739-12.997-21.674-22.666-45.369-28.52-69.89-1.695-7.104-2.42-10.76-3.605-18.184-1.441-9.022-2.208-15.612-2.667-22.918a318.388 318.388 0 0 0-.306-4.451c-.06-.73-.185-6.653-.276-13.164-.19-13.523-.361-16.018-1.619-23.581-4.112-24.728-16.45-47.576-34.61-64.087-35.35-32.142-82.886-45.108-129.877-35.426-24.306 5.008-48.166 16.912-66.757 33.306-1.255 1.107-2.41 2.089-2.566 2.183-.495.297 3.489-3.915 6.056-6.403 14.44-13.99 31.068-24.802 49.4-32.122 14.423-5.758 29.226-9.12 45.535-10.342l1.646-.123.81-1.073c3.579-4.743 11.324-12.924 16.069-16.972 18.345-15.654 39.342-24.712 63.735-27.495 3.574-.408 16.084-.578 20.245-.275a115.229 115.229 0 0 1 38.904 9.789c3.994 1.785 5.146 2.395 8.28 4.385 8.151 5.176 13.237 9.14 24.306 18.94 3.38 2.992 6.241 5.463 6.357 5.49.116.026.381-.198.59-.5 1.733-2.504 8.697-11.275 12.198-15.365 7.776-9.082 17.713-19.092 26.63-26.826 47.194-40.933 106.373-62.874 167.057-61.94 12.005.184 20.662.86 32.105 2.507 5.902.849 5.483.734 5.378 1.47-.095.663-11.02 114.93-11.103 116.136-.05.718-.022.76.516.811.313.03 1.847.225 3.41.434 12.633 1.692 25.14 4.681 37 8.844l3.096 1.086-.09.947c-.05.521-2.553 26.626-5.56 58.011l-5.467 57.063-.473-.097c-1.317-.27-6.52-.692-11.033-.896-13.913-.627-28.493 1.228-42.19 5.37-13.548 4.095-27.517 11.227-39.002 19.911-13.246 10.016-24.665 22.862-33.046 37.177l-1.448 2.472.39 1.126c.992 2.863 3.602 11.357 5.205 16.942 9.38 32.668 15.065 65.907 17.138 100.196.516 8.536.602 11.292.702 22.397l.107 11.885 1.567 1.423c13.773 12.504 30.035 21.87 47.345 27.27 4.111 1.283 10.277 2.8 14.305 3.52 1.925.345 3.566.681 3.647.749.082.067-.899.223-2.178.346-21.27 2.054-43.83 1.274-64.03-2.215l-2.039-.352-.077.398c-.042.22-.258 2.53-.479 5.134-1.333 15.692-3.868 33.397-7.101 49.597-.952 4.77-2.439 11.695-2.682 12.494-.091.3-.01.284.629-.12 2.782-1.756 7.5-3.476 11.99-4.371 4.635-.924 13.02-1.197 17.993-.585 6.422.79 10.983 2.646 14.34 5.834 3.216 3.056 5.062 7.049 6.057 13.103.312 1.9.334 3.12.248 13.827-.052 6.458-.094 16.857-.094 23.107 0 12.421.048 13.113 1.06 15.2.938 1.935 2.248 2.649 5.2 2.833 1.519.095 5.512-.176 6.667-.452l.427-.102v7.004l-2.037.31c-3.435.524-5.65.673-10.086.677-5.87.005-8.549-.418-11.49-1.812-1.975-.936-3.307-2.236-4.225-4.12-.669-1.376-1.331-3.788-1.331-4.85 0-.213-.075-.387-.166-.387-.091 0-.825.81-1.63 1.801-4.468 5.498-9.846 8.803-16.694 10.259-2.247.477-2.783.519-6.796.525-4.566.007-6.03-.164-9.058-1.054-5.643-1.661-10.123-5.198-12.445-9.827-2.242-4.47-2.802-10.214-1.502-15.402.54-2.157 2.174-5.398 3.66-7.263 4.417-5.545 12.734-9.589 24.27-11.802 4.415-.848 9.327-1.347 17.924-1.821l2.015-.111.142-6.376c.225-10.147-.081-13.286-1.604-16.462-1.362-2.836-3.54-4.442-7.31-5.385-1.476-.369-2.19-.424-5.485-.423-4.239 0-6.291.276-9.376 1.256-1.86.592-3.961 1.546-4.945 2.246l-.564.402.851.91a14.118 14.118 0 0 1 2.722 4.319c.453 1.146.502 1.515.508 3.825.01 2.498-.01 2.587-.607 3.854-1.447 3.055-3.604 4.606-7.052 5.07-2.407.324-5.365-.272-7.062-1.424l-.646-.438-.818 2.862c-20.217 70.714-58.017 136.937-108.829 190.659-5.515 5.83-11.425 11.87-11.437 11.687zm146.213-158.372c7.708-2.135 13.336-8.445 14.877-16.68.243-1.297.342-3.232.414-8.111l.095-6.408-1.49.106c-.82.059-2.47.156-3.668.216-9.634.487-16.966 2.271-20.918 5.09-2.534 1.81-3.875 3.82-4.697 7.046-.382 1.5-.427 2.117-.412 5.66.014 3.44.071 4.178.42 5.455 1.17 4.27 3.79 7.08 7.476 8.017 1.643.418 5.71.216 7.903-.391zm-387.243 9.06c-6.53-.647-10.305-1.247-14.774-2.347-3.828-.942-7.291-2.035-7.381-2.33-.038-.125-.163-4.66-.277-10.077-.114-5.417-.261-11.362-.327-13.21l-.12-3.363h3.247c1.786 0 3.248.034 3.248.075 0 1.48.821 7.137 1.35 9.3 2.664 10.891 8.426 15.135 20.526 15.121 1.875-.002 4.124-.108 4.997-.235 5.48-.797 9.181-2.636 11.309-5.617 1.306-1.83 1.827-3.49 1.93-6.15.139-3.537-.457-5.405-2.36-7.4-2.183-2.288-4.43-3.372-14.076-6.79-7.478-2.65-13.914-5.16-16.296-6.357-3.82-1.918-7.645-4.955-9.635-7.648-2.577-3.486-3.578-6.501-3.748-11.29-.246-6.92 2.039-12.635 6.819-17.06 8.09-7.491 22.17-9.57 40.19-5.936 3.653.737 8.267 1.919 8.331 2.134.036.12.159 4.351.273 9.404.115 5.052.262 10.528.327 12.169l.12 2.983h-6.493v-.581c0-1.126-.616-4.841-1.147-6.921-2.182-8.543-7.16-12.927-15.768-13.887a31.866 31.866 0 0 0-7.57.075c-2.772.37-4.067.741-6.305 1.812-1.604.767-2.102 1.12-3.156 2.238-1.352 1.433-2.242 3.057-2.59 4.725-.292 1.4-.258 4.858.06 6.05.862 3.24 3.232 5.441 8.16 7.58 1.662.723 3.668 1.446 12.784 4.607 6.242 2.165 10.552 3.842 12.922 5.027 9.87 4.938 14.324 12.048 13.431 21.446-.495 5.214-2.246 9.09-5.822 12.893-2.643 2.81-6.456 5.244-10.824 6.91-2.076.793-6.391 1.88-9.139 2.303-1.9.293-10.343.532-12.216.347zm76.994-.091c-10.632-1.365-17.553-7.651-18.951-17.212-.336-2.296-.137-6.682.396-8.715 2.38-9.092 10.285-15.144 24.142-18.481 6.074-1.463 10.846-2.048 21.707-2.658l2.009-.113.121-1.83c.067-1.007.121-4.686.121-8.176 0-6.53-.167-8.656-.86-10.985-1.664-5.586-6.408-8.045-14.859-7.702-4.516.184-8.195 1.023-11.288 2.574-2.465 1.237-2.392 1.07-1.134 2.589 1.886 2.28 3.135 5.404 3.135 7.842 0 1.246-.464 3.228-1.004 4.295-.619 1.221-2.043 2.79-3.09 3.403-1.964 1.15-4.702 1.582-7.211 1.135-2.045-.364-3.418-1.014-4.698-2.225-1.972-1.865-2.811-3.982-2.806-7.081.007-4.14 1.633-7.709 5.02-11.017 2.887-2.819 6.176-4.689 11.11-6.315 4.967-1.638 9.613-2.292 16.323-2.298 4.323-.004 6.837.198 10 .805 9.496 1.824 15 7.144 16.893 16.328.808 3.92.84 5.311.586 25.983-.279 22.746-.194 25.405.897 28.154.296.745 1.329 1.843 2.106 2.24 1.708.871 5.541.984 9.625.284l.615-.106v6.96l-1.243.23c-4.006.737-12.662 1.039-16.466.573-5.02-.615-8.679-2.689-10.115-5.73-.506-1.072-.974-2.767-1.25-4.525-.061-.39-.181-.71-.266-.71-.085 0-.629.618-1.208 1.373-1.371 1.788-4.187 4.525-6.126 5.955-3.7 2.73-8.413 4.505-13.703 5.162-1.847.23-6.719.226-8.528-.007zm12.536-8.606c5.376-1.117 9.855-4.023 12.827-8.322 1.234-1.785 2.524-4.487 3.034-6.353.782-2.858.959-4.892.96-11.03v-5.823l-1.751.1c-9.276.534-13.312 1.06-17.663 2.3-4.654 1.328-8.254 3.656-9.835 6.36-2.704 4.627-2.646 13.863.115 18.452 1.22 2.029 3.435 3.652 5.877 4.31 1.34.36 4.714.364 6.435.007zm61.143 2.562v-3.789h13.637v-63.262h-13.637v-7.387h30.305v6.63c0 3.646.069 6.629.152 6.629.083 0 .348-.405.587-.9.24-.495.97-1.71 1.621-2.699 5.096-7.732 11.912-11.533 21.695-12.097 15.654-.904 24.574 5.16 27.13 18.44.395 2.051.403 2.522.47 28.366l.07 26.28h13.242v7.577h-42.238v-7.577h12.323l-.059-27.132-.059-27.133-.427-1.605c-1.232-4.624-3.812-7.299-8.18-8.478-1.965-.53-6.768-.472-8.973.11-7.967 2.105-13.071 8.194-15.757 18.798-1.389 5.487-1.595 9.251-1.596 29.196v16.24l6.202.049 6.203.05v7.386l-21.355.048-21.356.048zm112.698.946v-2.842l23.202-32.29c12.761-17.76 23.202-32.346 23.202-32.415 0-.197-19.196.076-21.403.305-7.02.727-10.458 2.643-12.944 7.215-1.196 2.2-2.45 6.352-3.343 11.066a209.655 209.655 0 0 1-.486 2.51c-.09.423-.115.425-3.592.425-3.204 0-3.5-.028-3.508-.331-.004-.182.312-6.703.703-14.49l.71-14.158h65.077v5.683l-23.352 32.057c-12.843 17.631-23.422 32.17-23.508 32.31-.13.21 1.82.238 11.562.166 11.966-.09 13.294-.163 16.256-.899 5.958-1.481 8.745-5.4 10.97-15.43.37-1.667.816-3.905.992-4.972l.32-1.942h7.14l-.118 2.983c-.065 1.641-.3 8.566-.521 15.39l-.404 12.406-33.478.048-33.477.048zm183.43 2.599c-.05-.134-.07-1.817-.04-3.741l.051-3.498 6.866-.05 6.866-.05v-63.256h-13.827v-7.388h30.49l.05 7.15.05 7.15.91-1.704c2.143-4.017 5.908-8.305 9.356-10.657 10.244-6.988 22.093-4.82 24.604 4.501.445 1.654.457 5.326.023 6.956-1.225 4.59-4.755 7.255-9.599 7.247-4.896-.008-8.08-2.365-9.212-6.816-.365-1.433-.276-4.369.181-6.014.152-.547.231-.994.176-.994-.056 0-.785.342-1.62.76-4.452 2.229-8.063 6.111-10.654 11.457-1.84 3.795-2.912 7.374-3.738 12.471-.388 2.395-.406 3.204-.472 20.817l-.07 18.325h14.606v7.577h-22.45c-18.087 0-22.47-.048-22.545-.243z" fill="#ffffff" data-color="1"></path>
    </g>
</svg>

