<svg width="165" height="48" viewBox="0 0 165 48" fill="none" xmlns="http://www.w3.org/2000/svg">
<path d="M50.6186 45.7771C50.7533 45.9118 50.8206 46.0915 50.8206 46.316C50.8206 46.7651 50.6635 47.1692 50.3491 47.5285C50.0797 47.8428 49.7429 48 49.3387 48H34.8563C33.6438 48 32.7233 47.4836 32.0946 46.4507L25.5606 36.4141L19.1614 46.4507C18.4878 47.4836 17.5673 48 16.3997 48H1.84992C1.44576 48 1.08651 47.8653 0.77216 47.5958C0.50272 47.2815 0.368 46.9222 0.368 46.5181V46.316C0.368 46.0915 0.43536 45.9118 0.57008 45.7771L15.4566 23.0094L2.18672 3.07088C2.052 2.89125 1.98464 2.64427 1.98464 2.32992C1.98464 1.92576 2.11936 1.58896 2.3888 1.31952C2.70315 1.00517 3.0624 0.847996 3.46656 0.847996H18.0163C19.1839 0.847996 20.1269 1.40933 20.8454 2.532L26.0995 11.1541L31.7578 2.39728C32.0721 1.99312 32.4089 1.63386 32.7682 1.31952C33.1723 1.00517 33.7561 0.847996 34.5195 0.847996H49.0019C49.4061 0.847996 49.7429 1.00517 50.0123 1.31952C50.3267 1.58896 50.4838 1.92576 50.4838 2.32992V2.532C50.4838 2.75653 50.4165 2.93616 50.2818 3.07088L36.2035 23.8851L50.6186 45.7771ZM103.941 0.847996C104.435 0.847996 104.862 1.02762 105.221 1.38688C105.58 1.74613 105.76 2.17274 105.76 2.66672V46.1813C105.76 46.6753 105.58 47.1019 105.221 47.4611C104.862 47.8204 104.435 48 103.941 48H93.0964C92.0186 48 91.1205 47.5285 90.402 46.5854L75.7175 27.8594V46.1813C75.7175 46.6753 75.5379 47.1019 75.1786 47.4611C74.8194 47.8204 74.3928 48 73.8988 48H61.3698C60.8759 48 60.4493 47.8204 60.09 47.4611C59.7308 47.1019 59.5511 46.6753 59.5511 46.1813V2.66672C59.5511 2.17274 59.7308 1.74613 60.09 1.38688C60.4493 1.02762 60.8759 0.847996 61.3698 0.847996H72.2822C73.3599 0.847996 74.2356 1.29706 74.9092 2.1952L89.5937 22.4706V2.66672C89.5937 2.17274 89.7733 1.74613 90.1326 1.38688C90.4918 1.02762 90.9184 0.847996 91.4124 0.847996H103.941ZM139.885 0.847996C147.475 0.847996 153.537 2.48709 158.072 5.76528C162.653 9.04346 164.943 14.1179 164.943 20.9886V27.8594C164.943 34.8648 162.675 39.9842 158.14 43.2174C153.649 46.4058 147.564 48 139.885 48H118.397C117.903 48 117.477 47.8204 117.118 47.4611C116.758 47.1019 116.579 46.6753 116.579 46.1813V2.66672C116.579 2.17274 116.758 1.74613 117.118 1.38688C117.477 1.02762 117.903 0.847996 118.397 0.847996H139.885ZM140.222 34.8648C142.333 34.8648 143.994 34.3708 145.207 33.3829C146.464 32.35 147.093 30.913 147.093 29.0718V19.7762C147.093 17.935 146.464 16.5204 145.207 15.5325C143.994 14.4996 142.333 13.9832 140.222 13.9832H134.092V34.8648H140.222Z" fill="#ECD3F8"/>
</svg>
