<svg width="26" height="25" viewBox="0 0 26 25" fill="none" xmlns="http://www.w3.org/2000/svg">
<path d="M13.25 0.638672C6.39145 0.638672 0.831421 6.1987 0.831421 13.0572C0.831421 18.5104 4.34681 23.1438 9.23523 24.8125L9.32302 24.8381C9.94411 24.9549 10.1718 24.5715 10.1718 24.2411C10.1718 23.9462 10.1619 23.1645 10.1561 22.1302C6.702 22.8796 5.97325 20.464 5.97325 20.464C5.73475 19.698 5.24616 19.0686 4.60436 18.6554L4.59111 18.6479C3.46651 17.8778 4.67806 17.8935 4.67806 17.8935C5.49542 18.0086 6.18028 18.4881 6.57364 19.1605L6.58027 19.1729C7.03905 19.9969 7.90526 20.5451 8.89984 20.5451C9.37684 20.5451 9.82403 20.4193 10.2099 20.1982L10.1967 20.2048C10.2563 19.5497 10.5453 18.9717 10.9826 18.5444L10.9834 18.5436C8.22575 18.233 5.32648 17.1647 5.32648 12.4072C5.32648 12.3848 5.32566 12.3591 5.32566 12.3335C5.32566 11.0739 5.81176 9.92775 6.60676 9.0723L6.60428 9.07561C6.43617 8.62677 6.33845 8.10836 6.33845 7.56759C6.33845 6.92414 6.47592 6.31216 6.72353 5.76063L6.71194 5.78878C6.71194 5.78878 7.75206 5.45587 10.1271 7.06161C11.0579 6.79578 12.127 6.64258 13.2318 6.64258C14.3365 6.64258 15.4056 6.79578 16.4192 7.08148L16.3364 7.06161C18.6957 5.45587 19.7359 5.78878 19.7359 5.78878C19.9719 6.32044 20.1093 6.93988 20.1093 7.59161C20.1093 8.12327 20.0182 8.63339 19.8501 9.10708L19.8601 9.07561C20.6493 9.93023 21.1337 11.0764 21.1337 12.3359C21.1337 12.3616 21.1337 12.3865 21.1329 12.4113V12.4072C21.1329 17.178 18.2303 18.228 15.4669 18.5336C15.9902 19.0694 16.3132 19.8023 16.3132 20.6114C16.3132 20.6884 16.3099 20.7654 16.3041 20.8416L16.3049 20.8317C16.3049 22.4937 16.2892 23.8287 16.2892 24.232C16.2892 24.5582 16.5062 24.9458 17.143 24.8216C22.1349 23.1413 25.6661 18.5038 25.6661 13.0407C25.6661 6.19042 20.1127 0.637844 13.2632 0.637844C13.2583 0.637844 13.2525 0.637844 13.2475 0.637844H13.2483L13.25 0.638672Z" fill="#FF7AFA"/>
</svg>
